<?xml version="1.0" encoding="iso-8859-1"?>
<!-- Generator: Adobe Illustrator 19.0.0, SVG Export Plug-In . SVG Version: 6.00 Build 0)  -->
<svg version="1.1" id="Layer_1" xmlns="http://www.w3.org/2000/svg" xmlns:xlink="http://www.w3.org/1999/xlink" x="0px" y="0px"
	 viewBox="0 0 512 512" style="enable-background:new 0 0 512 512;" xml:space="preserve">
<path style="fill:#333E48;" d="M421.435,488.443c2.16,8.549-3.286,15.542-12.103,15.542H102.66c-8.817,0-14.263-6.994-12.102-15.542
	l25.192-99.683c2.161-8.548,11.141-15.542,19.958-15.542h240.578c8.817,0,17.797,6.994,19.958,15.542L421.435,488.443z"/>
<path style="fill:#F9BE00;" d="M115.915,50.537c-58.105,58.105-55.961,163.542,2.143,221.648
	c49.047,49.046,127.052,53.453,185.127,18.691l77.048,77.047c7.06,7.061,18.615,7.061,25.675,0L433.3,340.53
	c7.061-7.061,7.061-18.613,0-25.675l-77.047-77.048c34.762-58.073,30.352-136.078-18.693-185.126
	C279.456-5.424,174.019-7.567,115.915,50.537z"/>
<path style="fill:#D25459;" d="M173.578,306.11c42.279,13.827,90.467,8.193,129.606-15.234l77.048,77.047
	c7.06,7.061,18.615,7.061,25.675,0L433.3,340.53c7.061-7.061,7.061-18.613,0-25.675l-77.047-77.048
	c23.426-39.137,29.059-87.325,15.232-129.604L173.578,306.11z"/>
<path style="fill:#F9BE00;" d="M266.889,343.058c0-16.654-13.502-30.16-30.159-30.16s-30.159,13.506-30.159,30.16
	c0,16.657,13.502,30.16,30.159,30.16C253.387,373.218,266.889,359.715,266.889,343.058z"/>
<circle style="opacity:0.2;enable-background:new    ;" cx="120.987" cy="134.186" r="13.315"/>
<circle style="opacity:0.2;enable-background:new    ;" cx="163.735" cy="230.571" r="13.315"/>
<circle style="opacity:0.2;enable-background:new    ;" cx="193.252" cy="174.882" r="13.315"/>
<path style="fill:#F9BE00;" d="M320.007,426.829c0-8.817-7.214-16.03-16.03-16.03h-95.959c-8.817,0-16.03,7.214-16.03,16.03v23.542
	c0,8.817,7.214,16.03,16.03,16.03h95.959c8.817,0,16.03-7.214,16.03-16.03V426.829z"/>
<path style="opacity:0.2;enable-background:new    ;" d="M285.414,446.616h-58.835c-4.427,0-8.015-3.588-8.015-8.015
	s3.589-8.015,8.015-8.015h58.835c4.428,0,8.015,3.588,8.015,8.015S289.842,446.616,285.414,446.616z"/>
<path style="fill:#1E252B;" d="M438.969,346.197c10.203-10.204,10.203-26.806,0-37.012l-72.714-72.714
	c15.837-28.918,22.946-62.513,20.065-95.314c-3.215-36.614-18.114-69.168-43.09-94.146C313.352,17.135,270.068,0,224.475,0
	c-44.079,0-85.714,16.354-114.228,44.868c-29.095,29.096-45.443,71.594-44.853,116.597c0.586,44.682,17.716,87.104,46.997,116.386
	c24.73,24.73,57.429,39.71,93.305,43.019c-4.487,6.257-7.14,13.917-7.14,22.187c0,8.252,2.641,15.894,7.108,22.144h-69.956
	c-12.489,0-24.669,9.485-27.729,21.593l-25.192,99.683c-1.639,6.488-0.407,13,3.381,17.865s9.8,7.656,16.491,7.656h306.673
	c6.691,0,12.703-2.79,16.491-7.655c3.79-4.866,5.022-11.377,3.383-17.866l-25.192-99.683c-0.607-2.401-1.585-4.694-2.841-6.836
	c3.885-1.254,7.442-3.409,10.404-6.37L438.969,346.197z M123.726,266.516c-55.595-55.595-56.616-155.837-2.143-210.311
	c25.53-25.531,63.033-40.174,102.892-40.174c41.372,0,80.525,15.425,107.418,42.317c13.591,13.592,23.832,29.731,30.412,47.699
	L171.453,296.9C153.498,290.303,137.258,280.048,123.726,266.516z M413.664,490.406c0.425,1.685,0.252,3.138-0.488,4.089
	c-0.741,0.951-2.106,1.475-3.844,1.475H102.66c-1.739,0-3.102-0.524-3.843-1.475c-0.741-0.951-0.914-2.402-0.487-4.088
	l25.192-99.683c1.255-4.967,7.064-9.491,12.187-9.491h240.578c5.123,0,10.932,4.523,12.186,9.491L413.664,490.406z M214.586,343.058
	c0-12.211,9.934-22.144,22.143-22.144s22.143,9.934,22.143,22.144s-9.934,22.145-22.143,22.145
	C224.52,365.203,214.586,355.269,214.586,343.058z M263.689,316.057c13.264-3.475,26.088-8.555,38.163-15.18l64.325,64.325h-98.382
	c4.468-6.251,7.108-13.892,7.108-22.144C274.904,332.522,270.613,322.971,263.689,316.057z M400.242,362.254
	c-1.901,1.901-4.448,2.949-7.171,2.949s-5.27-1.046-7.17-2.949l-77.048-77.047c-1.545-1.544-3.597-2.347-5.672-2.347
	c-1.412,0-2.835,0.373-4.113,1.137c-23.546,14.094-50.561,21.543-78.125,21.543c-10.966,0-21.672-1.192-31.967-3.496L367.43,123.591
	c1.369,6.164,2.349,12.492,2.918,18.968c2.77,31.545-4.679,63.908-20.974,91.13c-1.887,3.153-1.388,7.186,1.21,9.784l77.047,77.047
	c3.953,3.954,3.954,10.388,0,14.342L400.242,362.254z M303.977,402.783h-95.959c-13.259,0-24.046,10.787-24.046,24.046v23.542
	c0,13.258,10.786,24.046,24.046,24.046h95.959c13.258,0,24.046-10.787,24.046-24.046v-23.542
	C328.022,413.571,317.235,402.783,303.977,402.783z M311.992,450.373c0,4.42-3.595,8.015-8.015,8.015h-95.959
	c-4.419,0-8.015-3.595-8.015-8.015V426.83c0-4.42,3.596-8.015,8.015-8.015h95.959c4.42,0,8.015,3.595,8.015,8.015V450.373z"/>
<g>
	<circle style="fill:#FFFFFF;" cx="233.521" cy="84.427" r="49.759"/>
	<circle style="fill:#FFFFFF;" cx="318.044" cy="142.821" r="32.061"/>
</g>
<g>
</g>
<g>
</g>
<g>
</g>
<g>
</g>
<g>
</g>
<g>
</g>
<g>
</g>
<g>
</g>
<g>
</g>
<g>
</g>
<g>
</g>
<g>
</g>
<g>
</g>
<g>
</g>
<g>
</g>
</svg>
